<svg xmlns="http://www.w3.org/2000/svg" width="28" height="28"><path data-name="Path 29" d="M14 0c-3.8 0-4.278.018-5.771.084a10.323 10.323 0 00-3.4.651 6.865 6.865 0 00-2.48 1.614A6.809 6.809 0 00.735 4.83a10.3 10.3 0 00-.651 3.4C.014 9.722 0 10.2 0 14s.018 4.278.084 5.771a10.328 10.328 0 00.651 3.4 7.15 7.15 0 004.095 4.094 10.333 10.333 0 003.4.651c1.492.07 1.97.084 5.77.084s4.278-.017 5.771-.084a10.351 10.351 0 003.4-.651 7.15 7.15 0 004.095-4.095 10.328 10.328 0 00.651-3.4C27.986 18.278 28 17.8 28 14s-.017-4.278-.084-5.771a10.346 10.346 0 00-.651-3.4 6.876 6.876 0 00-1.614-2.481A6.813 6.813 0 0023.17.735a10.305 10.305 0 00-3.4-.651C18.278.014 17.8 0 14 0zm0 2.52c3.737 0 4.183.018 5.659.083a7.71 7.71 0 012.6.484 4.61 4.61 0 012.658 2.657 7.727 7.727 0 01.482 2.6c.066 1.477.081 1.921.081 5.659s-.017 4.183-.087 5.659a7.867 7.867 0 01-.491 2.6 4.456 4.456 0 01-1.049 1.613 4.377 4.377 0 01-1.61 1.046 7.784 7.784 0 01-2.608.482c-1.487.066-1.924.081-5.669.081s-4.183-.017-5.669-.087a7.932 7.932 0 01-2.609-.497 4.341 4.341 0 01-1.609-1.049 4.259 4.259 0 01-1.05-1.61 7.937 7.937 0 01-.49-2.608c-.052-1.47-.071-1.924-.071-5.652s.018-4.183.071-5.671a7.931 7.931 0 01.489-2.61 4.15 4.15 0 011.05-1.611 4.131 4.131 0 011.61-1.042 7.756 7.756 0 012.591-.491c1.487-.053 1.925-.07 5.669-.07l.052.035zm0 4.291A7.189 7.189 0 1021.189 14 7.189 7.189 0 0014 6.811zm0 11.855A4.666 4.666 0 1118.666 14 4.665 4.665 0 0114 18.666zm9.153-12.138a1.68 1.68 0 11-1.68-1.679 1.681 1.681 0 011.68 1.679z" fill="#fff800"/></svg>
