<svg id="Layer_1" data-name="Layer 1" xmlns="http://www.w3.org/2000/svg" viewBox="0 0 757.62 92.68"><defs><style>.cls-1{fill:#f2ea38}</style></defs><path class="cls-1" d="M57.83 126.11c-15.31 0-32.13-8.42-35.17-27.25l-.37-2.3 20.32-5.13.31 2.93c.79 7.67 6.51 12.44 14.91 12.44 7.67 0 11.56-3.1 11.56-9.21 0-4.54-6.64-7.27-14.33-10.43-11.92-4.9-26.74-11-26.74-28.29 0-14.5 12.37-25.43 28.77-25.43 12.73 0 22.61 5.62 28.57 16.27l1.19 2.13-17.17 10.51-1.25-2.45c-2.52-4.94-6.65-7.77-11.34-7.77-4.46 0-8.1 3.08-8.1 6.86s6.22 6.36 13.42 9.26C74.08 73 90.07 79.39 90.07 97.84c0 16.38-13.56 28.27-32.24 28.27zM25.39 98.6c2.87 17.11 18.34 24.77 32.44 24.77 17.37 0 29.49-10.5 29.49-25.53 0-16.6-14.38-22.4-25.93-27-8.12-3.27-15.14-6.1-15.14-11.8 0-5.29 4.86-9.6 10.84-9.6 5.61 0 10.71 3.39 13.68 9.07l12.4-7.58c-5.45-9.62-14.46-14.7-26.08-14.7-12.94 0-26 7.79-26 22.69 0 15.46 13.3 20.93 25 25.75 8.6 3.54 16 6.59 16 13 0 7.7-5.08 12-14.3 12-9.69 0-16.58-5.75-17.61-14.67zM125.06 125.12V53.49H98.34V34.67h73.87v18.82h-26.72v71.63zm17.69-2.74V50.75h26.72V37.41h-68.39v13.34h26.72v71.63zM234.68 125.12l-6.56-18.55h-29.57l-6.68 18.55h-22.25l36.18-90.45h15l36.05 90.45zm18.08-2.74l-33.86-85h-11.24l-34 85H190l6.68-18.56h33.43l6.56 18.56zM201.68 91.1l11.66-31.82L225 91.1zm19.4-2.74l-7.74-21.11-7.74 21.11zM281 125.12V53.49h-26.78V34.67h73.88v18.82h-26.72v71.63zm17.68-2.74V50.75h26.73V37.41H257v13.34h26.72v71.63zM342.8 125.12V34.67h61.88v19.19h-41.45V70.3h39.84v19.19h-39.84v16.07h41.45v19.56zm59.14-2.74V108.3h-41.45V86.75h39.84V73h-39.84V51.12h41.45V37.41h-56.39v85zM496 125.12V72.87l-16.89 44.83h-18.36L443.9 72.87v52.25h-19.81V34.67h25l20.87 56 20.87-56h25v90.45zm17-2.74v-85h-20.29l-22.78 61.14-22.78-61.11h-20.32v85h14.33V58.87l.38-.07 21.1 56.2h14.58l21.1-56.16.39.07v63.51zM539.14 125.12V34.67H601v19.19h-41.43V70.3h39.84v19.19h-39.84v16.07H601v19.56zm59.14-2.74V108.3h-41.45V86.75h39.84V73h-39.84V51.12h41.45V37.41h-56.4v85zM672 125.12L640.24 72v53.09h-19.81V34.67h19.2l31.89 53.12V34.67h19.81v90.45zm16.59-2.74v-85h-14.33v60.3l-36.18-60.27h-14.91v85h14.32v-60.3l36.07 60.27zM732.76 125.12V53.49H706V34.67h73.87v18.82h-26.68v71.63zm17.69-2.74V50.75h26.72V37.41h-68.39v13.34h26.72v71.63z" transform="translate(-22.29 -33.44)"/></svg>
