<svg xmlns="http://www.w3.org/2000/svg" width="28" height="28"><path data-name="Path 28" d="M14 0a14 14 0 1014 14A14.041 14.041 0 0014 0zm6.441 20.23a.833.833 0 01-1.191.28c-3.29-2.03-7.42-2.451-12.321-1.331A.865.865 0 116.51 17.5c5.32-1.191 9.94-.7 13.58 1.54a.84.84 0 01.351 1.19zm1.68-3.85a1.058 1.058 0 01-1.473.35 18.143 18.143 0 00-13.929-1.61 1.063 1.063 0 01-.63-2.031 20.489 20.489 0 0115.75 1.891.989.989 0 01.281 1.4zm.14-3.92C17.78 9.8 10.29 9.52 6.02 10.851A1.285 1.285 0 015.25 8.4c4.97-1.47 13.16-1.19 18.341 1.891a1.354 1.354 0 01.489 1.82 1.466 1.466 0 01-1.819.349z" fill="#fff800"/></svg>
